<svg width="96" height="96" viewBox="0 0 96 96" fill="none" xmlns="http://www.w3.org/2000/svg">
<path d="M48 65.28C38.4 65.28 30.72 57.6 30.72 48C30.72 38.4 38.4 30.72 48 30.72C57.6 30.72 65.28 38.4 65.28 48C65.28 57.6 57.6 65.28 48 65.28ZM48 34.56C40.512 34.56 34.56 40.512 34.56 48C34.56 55.488 40.512 61.44 48 61.44C55.488 61.44 61.44 55.488 61.44 48C61.44 40.512 55.488 34.56 48 34.56Z" fill="black"/>
<path d="M53.184 84.48H42.816L39.936 75.648C38.016 75.072 36.096 74.304 34.368 73.344L25.92 77.568L18.624 70.272L22.848 61.824C21.888 60.096 21.12 58.176 20.544 56.256L11.52 53.184V42.816L20.352 39.936C20.928 38.016 21.696 36.096 22.656 34.368L18.432 25.92L25.728 18.624L34.176 22.848C35.904 21.888 37.824 21.12 39.744 20.544L42.816 11.52H53.184L56.064 20.352C57.984 20.928 59.904 21.696 61.632 22.656L70.08 18.432L77.376 25.728L73.152 34.176C74.112 35.904 74.88 37.824 75.456 39.744L84.288 42.624V52.992L75.456 55.872C74.88 57.792 74.112 59.712 73.152 61.44L77.376 69.888L70.08 77.184L61.632 72.96C59.904 73.92 57.984 74.688 56.064 75.264L53.184 84.48ZM45.504 80.64H50.496L53.184 72.384L54.144 72.192C56.448 71.616 58.56 70.656 60.672 69.504L61.632 68.928L69.312 72.768L72.768 69.312L68.928 61.632L69.504 60.672C70.656 58.752 71.616 56.448 72.192 54.144L72.384 53.184L80.64 50.496V45.504L72.384 42.816L72.192 41.856C71.616 39.552 70.656 37.44 69.504 35.328L68.928 34.368L72.768 26.688L69.312 23.232L61.632 27.072L60.672 26.496C58.56 25.344 56.448 24.384 54.144 23.808L53.184 23.616L50.496 15.36H45.504L42.816 23.616L41.856 23.808C39.552 24.384 37.44 25.344 35.328 26.496L34.368 27.072L26.688 23.232L23.232 26.688L27.072 34.368L26.496 35.328C25.344 37.248 24.384 39.552 23.808 41.856L23.616 42.816L15.36 45.504V50.496L23.616 53.184L23.808 54.144C24.384 56.448 25.344 58.56 26.496 60.672L27.072 61.632L23.232 69.312L26.688 72.768L34.368 68.928L35.328 69.504C37.44 70.656 39.552 71.616 41.856 72.192L42.816 72.384L45.504 80.64Z" fill="black"/>
</svg>
