<svg width="96" height="96" viewBox="0 0 96 96" fill="none" xmlns="http://www.w3.org/2000/svg">
<path d="M38.4 34.56H42.24V65.28H38.4V34.56Z" fill="black"/>
<path d="M46.08 34.56H49.92V65.28H46.08V34.56Z" fill="black"/>
<path d="M53.76 34.56H57.6V65.28H53.76V34.56Z" fill="black"/>
<path d="M23.04 23.04H72.96V26.88H23.04V23.04Z" fill="black"/>
<path d="M57.6 23.04H53.76V21.12C53.76 19.968 52.992 19.2 51.84 19.2H44.16C43.008 19.2 42.24 19.968 42.24 21.12V23.04H38.4V21.12C38.4 17.856 40.896 15.36 44.16 15.36H51.84C55.104 15.36 57.6 17.856 57.6 21.12V23.04Z" fill="black"/>
<path d="M59.52 76.8H36.48C33.408 76.8 30.72 74.304 30.336 71.232L26.88 25.152L30.72 24.768L34.176 70.848C34.176 72 35.328 72.96 36.48 72.96H59.52C60.672 72.96 61.632 72 61.824 70.848L65.28 24.768L69.12 25.152L65.664 71.232C65.28 74.304 62.592 76.8 59.52 76.8Z" fill="black"/>
</svg>
